# xmcd
#
# Track frame offsets:
#	150
#	14452
#	26537
#	41362
#	64842
#	81540
#	96485
#	115677
#	132922
#	155682
#
# Disc length: 2292 seconds
#
# Revision: 1
# Processed by: cddbd v1.4PL0 Copyright (c) Steve Scherf et al.
# Submitted via: audiograbber 1.80.04
#
DISCID=8208f20a
DTITLE=Jim Kweskin - Side by Side
DYEAR=1979
DGENRE=Bluegrass
TTITLE0=The Preacher and the Bear
TTITLE1=Papa's on the Housetop
TTITLE2=On the Sunny Side of the Street
TTITLE3=Ain't Misbehavin'
TTITLE4=Sweet Sue - Just You
TTITLE5=Goody-Goody
TTITLE6=Side by Side
TTITLE7=It's a Sin to Tell a Lie
TTITLE8=Cielito Lindo
TTITLE9=Tumbling Tumbleweeds
EXTD=
EXTT0=
EXTT1=
EXTT2=
EXTT3=
EXTT4=
EXTT5=
EXTT6=
EXTT7=
EXTT8=
EXTT9=
PLAYORDER=
